<svg width="320" height="94" viewBox="0 0 320 94" fill="none" xmlns="http://www.w3.org/2000/svg">
<path d="M62.1127 22.0295L52.1102 56.5154L41.2639 22.0295H32.4496L22.4534 56.5154L11.6137 22.0295H2.79944L18.1871 70.9794H26.9318L37.0041 36.5104L47.8438 70.9794H56.5888L70.8443 22.0295H62.1127Z" fill="#333333"/>
<path d="M177.52 23.4298C181.727 25.2228 185.084 28.566 186.893 32.7667C187.832 34.9177 188.309 37.2415 188.293 39.5886C188.307 41.9459 187.83 44.2801 186.893 46.4434C185.099 50.662 181.739 54.0207 177.52 55.8138C175.357 56.7505 173.024 57.2272 170.668 57.214H163.671L167.1 48.8198H170.668C175.747 48.7748 179.854 44.6678 179.899 39.5886C179.953 37.1512 178.96 34.808 177.172 33.1508C175.473 31.3839 173.119 30.3969 170.668 30.4235H160.805V70.9796H152.41V22.0296H170.668C173.024 22.0161 175.357 22.4925 177.52 23.4298Z" fill="#ED3B3B"/>
<path d="M249.705 35.0406C251.849 35.0104 253.974 35.4526 255.928 36.3347C257.759 37.1727 259.393 38.3886 260.72 39.9028C262.07 41.4592 263.114 43.2555 263.799 45.1984C264.531 47.2643 264.897 49.4416 264.881 51.6333V70.9794H256.49V51.6165C256.546 49.4194 255.654 47.3041 254.041 45.8113C252.539 44.2624 250.463 43.4024 248.305 43.4342C243.823 43.3976 240.16 47.0016 240.123 51.4835C240.123 51.5278 240.123 51.5722 240.123 51.6165V70.9794H231.729V36.0205H240.123V38.6683C241.404 37.5823 242.842 36.6975 244.39 36.0436C246.075 35.3519 247.884 35.0106 249.705 35.0406Z" fill="#ED3B3B"/>
<path d="M317.201 22.0295H308.807V70.9795H317.201V22.0295Z" fill="#ED3B3B"/>
<path d="M96.5955 35.951V38.7478C95.174 37.6384 93.5956 36.7462 91.9121 36.0997C89.9669 35.3705 87.9022 35.0148 85.8251 35.0508C83.3844 35.0263 80.9656 35.5147 78.7252 36.4841C76.6029 37.4094 74.689 38.7535 73.0987 40.4359C71.4969 42.1378 70.2382 44.1329 69.3915 46.3109C68.4963 48.6069 68.0471 51.0524 68.0675 53.5164C68.0507 55.9571 68.5002 58.3779 69.3915 60.6495C70.2377 62.8281 71.4961 64.8226 73.0987 66.5246C74.6872 68.2084 76.6017 69.5534 78.7252 70.4764C80.9646 71.4484 83.3837 71.9378 85.8251 71.9132C88.3046 71.9576 90.7627 71.4491 93.0204 70.4236L90.0785 62.8935C88.9402 63.3157 87.7337 63.5244 86.5201 63.5094C85.1917 63.5136 83.8755 63.2641 82.6407 62.7742C81.4078 62.2873 80.2972 61.5347 79.3875 60.5698C75.4686 56.6479 75.4686 50.2926 79.3875 46.3709C81.2818 44.4855 83.8473 43.4295 86.5201 43.4346C92.0571 43.4091 96.5663 47.8772 96.5922 53.4139C96.5924 53.4451 96.5924 53.4756 96.5922 53.5068V70.9795H104.986V35.951H96.5955Z" fill="#333333"/>
<path d="M125.051 62.599H120.658C119.841 62.6098 119.056 62.28 118.49 61.6887C117.89 61.1016 117.56 60.2909 117.58 59.4513V48.611H124.574L122.479 40.2176H117.58V26.8586L109.187 28.9437V59.4381C109.178 60.9775 109.488 62.5025 110.097 63.9165C110.68 65.2849 111.512 66.5341 112.55 67.6003C113.589 68.6575 114.826 69.5007 116.19 70.083C117.602 70.6856 119.123 70.9915 120.658 70.9795H128.331L125.051 62.599Z" fill="#333333"/>
<path d="M146.234 62.5991H141.931C141.112 62.6099 140.326 62.2801 139.76 61.6888C139.162 61.1006 138.833 60.2903 138.853 59.4514V48.6111H145.847L143.748 40.2176H138.843V26.8586L130.449 28.9437V59.4382C130.439 60.9776 130.749 62.5031 131.359 63.9166C131.942 65.2796 132.771 66.5246 133.805 67.5872C134.844 68.6456 136.082 69.4888 137.446 70.0692C138.859 70.6779 140.383 70.9885 141.921 70.9795H149.514L146.234 62.5991Z" fill="#333333"/>
<path d="M218.797 35.951V38.7478C217.375 37.6384 215.797 36.7462 214.114 36.0997C212.169 35.3705 210.104 35.0148 208.027 35.0508C205.586 35.0226 203.166 35.5078 200.924 36.4739C198.801 37.3991 196.888 38.7433 195.297 40.4257C193.697 42.1291 192.438 44.1233 191.59 46.301C190.695 48.5967 190.245 51.0427 190.266 53.5068C190.249 55.9468 190.699 58.3677 191.59 60.6393C192.437 62.8173 193.696 64.8118 195.297 66.5142C196.886 68.1988 198.8 69.5432 200.924 70.4666C203.163 71.4381 205.582 71.9274 208.023 71.9029C210.381 71.9449 212.721 71.494 214.895 70.5788L211.939 63.0194C210.901 63.3576 209.814 63.5243 208.722 63.5122C207.394 63.5171 206.077 63.2676 204.843 62.7777C203.61 62.2901 202.499 61.5376 201.589 60.5733C197.671 56.6508 197.671 50.2962 201.589 46.3738C203.484 44.4891 206.049 43.4324 208.722 43.4378C214.259 43.4103 218.77 47.8771 218.797 53.4138C218.797 53.445 218.797 53.4755 218.797 53.5068V70.9794H227.191V35.951H218.797Z" fill="#ED3B3B"/>
<path d="M292.105 62.3739L291.602 62.1719C290.052 63.0714 288.286 63.529 286.495 63.496C285.177 63.5025 283.871 63.253 282.648 62.7608C281.414 62.2571 280.294 61.5074 279.359 60.5564C278.495 59.7492 277.805 58.7735 277.333 57.6899H304.474C304.807 56.3167 304.972 54.9069 304.964 53.4934C304.979 51.0233 304.491 48.576 303.531 46.3005C301.662 41.8674 298.134 38.3404 293.7 36.4737C289.088 34.5628 283.905 34.5628 279.292 36.4737C274.86 38.3422 271.334 41.8686 269.465 46.3005C268.501 48.5797 268.014 51.0317 268.032 53.5066C268.018 55.9569 268.506 58.3843 269.465 60.6391C271.334 65.0713 274.86 68.598 279.292 70.466C281.571 71.4314 284.023 71.9202 286.498 71.9028C289.176 71.9243 291.826 71.36 294.263 70.2476C294.525 70.1253 294.783 70 295.038 69.8675L292.105 62.3739ZM279.369 46.3704C281.26 44.4793 283.829 43.4227 286.505 43.434C289.185 43.3867 291.767 44.4493 293.637 46.3704C294.493 47.2132 295.182 48.2103 295.666 49.3095H277.333C277.819 48.2097 278.51 47.2123 279.369 46.3704Z" fill="#ED3B3B"/>
</svg>
