<svg width="330" height="97" viewBox="0 0 330 97" fill="none" xmlns="http://www.w3.org/2000/svg">
<path d="M299.319 42.8591L299.85 42.8613H317.845L325.505 76.9251H306.995L305.669 70.8716L290.377 70.8684L286.337 76.1327C286.003 76.5675 285.279 76.9251 284.73 76.9251H281.25C279.996 76.9251 279.273 75.5019 280.011 74.4889L298.385 49.28C298.385 49.28 300.1 46.7035 299.165 45.6777C298.175 44.5918 298.025 43.008 299.319 42.8591ZM293.367 66.3322H304.607L302.116 55.6515C302.023 55.1911 301.334 55.0519 301.056 55.4299L293.367 66.3322Z" fill="#4771B7"/>
<path d="M242.602 42.8591H243.239H259.926L269.483 65.7143L275.605 42.8591H282.747L275.122 73.6181C274.64 75.5595 272.898 76.9238 270.898 76.9238H263.076C260.908 76.9238 258.954 75.6131 258.131 73.6063L249.852 53.4251L244.202 74.8142C243.875 76.0585 242.75 76.9248 241.464 76.9238H238.757C237.409 76.9227 236.425 75.6484 236.767 74.3431L243.709 47.814C243.709 47.814 244.163 45.472 242.563 44.5639C241.254 43.8208 241.699 42.8591 242.602 42.8591Z" fill="#4771B7"/>
<path d="M220.162 42.8591H220.802H238.049L229.61 74.8132C229.282 76.0575 228.157 76.9239 226.872 76.9239H216.322C214.974 76.9239 213.989 75.6484 214.331 74.3431L221.274 47.814C221.274 47.814 221.728 45.4721 220.128 44.5639C218.818 43.8208 219.26 42.8591 220.162 42.8591Z" fill="#4771B7"/>
<path d="M213.965 50.2128L212.084 56.3164C211.702 57.5544 210.558 58.3982 209.263 58.3982H199.004C197.912 58.3982 197.112 57.3681 197.384 56.3112L199.576 47.7615C199.769 47.0108 199.202 46.2806 198.427 46.2806H193.463C192.66 46.2806 191.957 46.8214 191.753 47.5977L185.356 71.7302C185.156 72.4831 185.724 73.2209 186.503 73.2209H191.308C192.094 73.2209 192.786 72.7005 193.006 71.9454L195.594 63.1784C195.894 62.1462 196.839 61.4372 197.914 61.4372H208.71C209.756 61.4372 210.519 62.4289 210.249 63.4397L208.518 69.9238C207.416 74.0519 203.676 76.9227 199.404 76.9217L176.065 76.9185C172.299 76.9185 169.549 73.3558 170.503 69.7116L176.255 49.8785C177.461 45.7205 181.269 42.8591 185.599 42.8591H208.537C212.36 42.8592 215.092 46.5589 213.965 50.2128Z" fill="#4771B7"/>
<path d="M154.684 42.8591H155.317H172.562L164.122 74.8132C163.795 76.0575 162.671 76.9239 161.385 76.9239H150.835C149.487 76.9239 148.503 75.6484 148.843 74.3431L155.787 47.814C155.787 47.814 156.24 45.4721 154.641 44.5639C153.332 43.8208 153.781 42.8591 154.684 42.8591Z" fill="#4771B7"/>
<path d="M113.735 42.8593H114.369L148.632 42.8486C149.69 42.8475 150.493 43.8059 150.307 44.8468C150.161 45.6574 149.456 46.2475 148.633 46.2485L130.717 46.2603L127.517 58.3801H144.135C144.722 58.3801 144.976 59.1222 144.512 59.4821L142.223 61.2596C141.783 61.6013 141.244 61.7865 140.687 61.7865H126.617L123.176 74.8133C122.849 76.0577 121.723 76.924 120.437 76.924H109.888C108.54 76.924 107.555 75.6486 107.897 74.3433L114.84 47.8142C114.84 47.8142 115.294 45.4722 113.694 44.5641C112.384 43.8209 112.832 42.8593 113.735 42.8593Z" fill="#4771B7"/>
<path d="M72.1793 45.7109L75.3729 41.903C75.8429 41.3483 76.6514 41.2295 77.2608 41.6246L79.8661 43.3155C80.3028 43.5992 80.8575 43.6249 81.318 43.385L82.1799 42.9375C82.6296 42.703 82.9233 42.25 82.9543 41.7445L83.1641 38.2814C83.209 37.5394 83.813 36.9525 84.5565 36.9268L89.1447 36.7704C89.8379 36.7459 90.4491 37.2171 90.6025 37.8927L91.2885 40.9093C91.3934 41.3665 91.7136 41.7456 92.1486 41.9244L93.11 42.3185C93.6144 42.5263 94.1938 42.4309 94.605 42.0733L96.9879 40.0076C97.5435 39.5236 98.3757 39.5386 98.9152 40.0397L102.547 43.4087C103.076 43.9001 103.161 44.7075 102.746 45.2986L101.086 47.6566C100.794 48.0689 100.741 48.6022 100.942 49.0638L101.506 50.3595C101.72 50.8511 102.188 51.184 102.722 51.2237L105.883 51.4603C106.607 51.5149 107.178 52.0974 107.218 52.8235L107.475 57.6444C107.511 58.3362 107.052 58.9563 106.379 59.1222L103.422 59.8547C102.931 59.9768 102.538 60.3461 102.389 60.8302L102.033 61.9857C101.89 62.4461 101.986 62.9483 102.29 63.322L104.606 65.9649C105.05 66.5121 105.033 67.3003 104.567 67.8303L101.275 71.5397C100.778 72.1029 99.9313 72.1908 99.3286 71.7411L97.0018 70.0031C96.5359 69.6562 95.9072 69.6207 95.4059 69.9142L94.3557 70.532C93.9283 70.7827 93.6584 71.2356 93.6436 71.7314L93.5333 75.2287C93.5109 75.9837 92.9068 76.5942 92.1508 76.6252L87.7388 76.8116C87.0469 76.8405 86.4322 76.3757 86.2739 75.7021L85.4515 72.2379C85.3295 71.7206 84.9309 71.3127 84.417 71.1756L83.5188 70.9143C83.0305 70.7848 82.5098 70.9208 82.1458 71.272L79.8059 73.3837C79.2557 73.917 78.3827 73.9255 77.8208 73.404L74.2335 70.0716C73.7151 69.5874 73.6227 68.7994 74.016 68.2104L75.7572 65.6061C76.0571 65.1596 76.0814 64.5835 75.8244 64.1112L75.1347 62.8508C74.8953 62.4118 74.4442 62.128 73.9442 62.1013L70.877 61.9406C70.1695 61.9031 69.5946 61.357 69.5183 60.6534L69.0013 55.857C68.9228 55.1203 69.4125 54.4435 70.1385 54.2894L73.1173 53.6587C73.6003 53.5559 73.9976 53.2132 74.1711 52.7505L74.6841 51.3746C74.8706 50.8744 74.7666 50.3122 74.4133 49.9128L72.1985 47.5998C71.7242 47.0624 71.7157 46.2581 72.1793 45.7109ZM88.2358 50.1122C84.5466 50.1122 81.5557 53.1019 81.5557 56.791C81.5557 60.48 84.5466 63.4688 88.2358 63.4688C91.9235 63.4688 94.9136 60.48 94.9136 56.791C94.9136 53.1019 91.9235 50.1122 88.2358 50.1122Z" fill="#E59306"/>
<path d="M244.511 20.5181H244.778H253.567L257.762 37.554H249.066L248.259 34.5247H240.372L238.656 36.7596C238.273 37.2607 237.677 37.554 237.045 37.554H236.306C235.335 37.554 234.774 36.4511 235.347 35.6662L244.044 23.7338C244.044 23.7338 244.903 22.4434 244.435 21.9283C243.939 21.3854 243.862 20.5919 244.511 20.5181ZM241.701 32.2791H247.845L246.643 26.3477C246.596 26.1175 246.299 26.0522 246.158 26.2406L241.701 32.2791Z" fill="#4771B7"/>
<path d="M215.314 20.517H215.581L231.152 20.5149C233.42 20.5149 235.075 22.6619 234.497 24.854L232.176 33.6467C231.569 35.948 229.488 37.551 227.109 37.5521L211.89 37.5542L215.776 22.995C215.776 22.995 215.964 21.8235 215.299 21.3705C214.755 20.9979 214.941 20.517 215.314 20.517ZM223.537 22.7819L219.983 35.2733H222.442C223.269 35.2733 223.998 34.7219 224.221 33.923L226.919 24.2586C227.145 23.5251 226.596 22.7819 225.828 22.7819H223.537Z" fill="#4771B7"/>
<path d="M186.37 20.5171H186.636H195.425L191.529 35.2819H198.856C199.533 35.2819 199.956 36.0143 199.617 36.6001L199.569 36.6858C199.258 37.2234 198.684 37.5542 198.064 37.5542H182.946L186.83 22.995C186.83 22.995 187.019 21.8247 186.355 21.3706C185.811 20.9991 185.996 20.5171 186.37 20.5171Z" fill="#4771B7"/>
<path d="M166.88 20.5203H167.144H175.934L180.127 37.5564H171.433L170.627 34.5269H162.739L161.023 36.7618C160.639 37.2629 160.043 37.5564 159.411 37.5564H158.673C157.701 37.5564 157.139 36.4544 157.712 35.6696L166.41 23.7359C166.41 23.7359 167.27 22.4456 166.801 21.9305C166.306 21.3876 166.23 20.5941 166.88 20.5203ZM164.068 32.2813H170.211L169.01 26.3499C168.963 26.1198 168.665 26.0544 168.526 26.2439L164.068 32.2813Z" fill="#4771B7"/>
<path d="M142.374 20.5171H160.223C160.852 20.5171 161.362 21.0279 161.359 21.6565C161.357 22.283 160.85 22.7906 160.223 22.7906H155.5L151.604 37.5542H143.62L147.554 22.7906H143.328C142.669 22.7906 142.051 22.481 141.655 21.9553C141.21 21.3632 141.632 20.5171 142.374 20.5171Z" fill="#4771B7"/>
<path d="M120.215 20.5171H120.482H135.28H135.63C139.351 20.5107 139.351 22.6781 139.344 23.8217C139.334 25.1378 138.925 27.6714 138.35 29.3141C137.678 31.2395 136.891 32.5192 133.975 32.8854L136.258 37.5532H128.665L126.423 32.9817H125.983L124.777 37.5532H116.792L120.678 22.9962C120.678 22.9962 120.867 21.8247 120.203 21.3705C119.658 20.9991 119.839 20.5171 120.215 20.5171ZM128.45 23.2714L126.46 29.9641C126.298 30.5049 126.703 31.0478 127.267 31.0478H129.292C129.762 31.0478 130.175 30.7373 130.307 30.2854L132.243 23.6419C132.423 23.0251 131.96 22.4083 131.318 22.4083H129.608C129.073 22.4083 128.604 22.7584 128.45 23.2714Z" fill="#4771B7"/>
<path d="M98.1368 22.4016L99.9049 20.6176C100.164 20.3585 100.576 20.3327 100.866 20.5576L102.108 21.5182C102.315 21.6777 102.594 21.7141 102.837 21.6123L103.29 21.4239C103.525 21.3244 103.692 21.1091 103.729 20.8542L103.979 19.1205C104.033 18.7479 104.362 18.4781 104.737 18.4962L107.055 18.6087C107.405 18.6258 107.692 18.8881 107.741 19.2351L107.961 20.7836C107.995 21.0181 108.14 21.2216 108.35 21.3297L108.819 21.5686C109.065 21.6949 109.36 21.6702 109.582 21.5086L110.869 20.5672C111.169 20.3466 111.587 20.3884 111.838 20.6636L113.526 22.513C113.772 22.7829 113.781 23.1929 113.547 23.4724L112.613 24.5904C112.448 24.7864 112.399 25.052 112.481 25.294L112.711 25.9697C112.799 26.2267 113.021 26.4131 113.287 26.4559L114.868 26.7065C115.232 26.7654 115.495 27.0823 115.485 27.4496L115.411 29.888C115.402 30.2382 115.144 30.5304 114.799 30.5862L113.278 30.8313C113.027 30.872 112.814 31.0413 112.718 31.2801L112.489 31.8466C112.399 32.0725 112.427 32.3295 112.564 32.5308L113.62 33.9571C113.821 34.2528 113.778 34.6479 113.523 34.8952L111.71 36.6268C111.435 36.8893 111.005 36.8988 110.72 36.6461L109.621 35.6738C109.402 35.4789 109.087 35.4361 108.822 35.5624L108.267 35.8291C108.041 35.9373 107.887 36.1546 107.858 36.4041L107.657 38.1603C107.613 38.5394 107.284 38.822 106.902 38.806L104.671 38.715C104.322 38.7 104.032 38.4409 103.981 38.0949L103.711 36.3163C103.671 36.0507 103.488 35.828 103.235 35.738L102.794 35.5689C102.553 35.4831 102.285 35.5303 102.086 35.691L100.821 36.6569C100.521 36.9032 100.082 36.871 99.8201 36.584L98.1529 34.756C97.9108 34.4916 97.8978 34.09 98.122 33.8105L99.1071 32.5716C99.2762 32.3585 99.3134 32.0693 99.2022 31.8209L98.9089 31.1581C98.8062 30.9268 98.591 30.764 98.339 30.7308L96.8022 30.5209C96.4471 30.4727 96.1803 30.1739 96.1718 29.8163L96.113 27.3779C96.1023 27.0043 96.3785 26.6841 96.7498 26.638L98.2771 26.4442C98.5233 26.412 98.7385 26.2567 98.8444 26.0309L99.1614 25.3583C99.2762 25.1153 99.2471 24.8272 99.0865 24.6119L98.0673 23.3548C97.8507 23.0645 97.8798 22.6587 98.1368 22.4016ZM106.038 25.2897C104.181 25.1355 102.55 26.5158 102.395 28.3748C102.241 30.2316 103.622 31.8625 105.48 32.0168C107.337 32.1709 108.967 30.7906 109.123 28.9326C109.277 27.0759 107.897 25.445 106.038 25.2897Z" fill="#E59306"/>
<path d="M74.0801 20.5171H74.3456H89.1416H89.4918C93.2141 20.5107 93.2141 22.6782 93.2056 23.8217C93.1958 25.1378 92.7868 27.6715 92.2128 29.3142C91.4505 31.4965 90.5402 32.8491 86.5515 32.9829H86.2385L79.8459 32.9818L78.6401 37.5534H70.6555L74.5406 22.9962C74.5406 22.9962 74.729 21.8247 74.064 21.3706C73.52 20.9991 73.7043 20.5171 74.0801 20.5171ZM82.3131 23.2714L80.3212 29.9642C80.1607 30.505 80.5651 31.0479 81.1283 31.0479H83.1534C83.6247 31.0479 84.0381 30.7374 84.1695 30.2855L86.1058 23.6419C86.2856 23.0251 85.8233 22.4083 85.1807 22.4083H83.4696C82.9359 22.4083 82.4651 22.7584 82.3131 23.2714Z" fill="#4771B7"/>
<path d="M23.0575 48.5765H47.7237C45.6399 42.3216 45.0381 41.4028 35.3908 41.4028C25.5677 41.4028 24.9669 42.5336 23.0575 48.5765ZM25.922 57.3103C26.8731 54.7938 25.3964 52.7624 21.4557 52.7624C18.124 52.7624 19.1522 54.7702 19.454 55.4695C20.8472 58.6745 25.3256 58.8876 25.922 57.3103ZM51.3774 55.4695C51.6814 54.7702 52.7083 52.7624 49.377 52.7624C45.4354 52.7624 43.9605 54.7938 44.9116 57.3103C45.508 58.8876 49.9864 58.6745 51.3774 55.4695ZM29.8039 56.9687C29.8039 56.9687 30.1734 57.4785 30.3416 57.5984C31.273 58.2677 32.3721 58.2055 32.7411 58.2677L37.5109 58.3266C37.8912 58.213 39.3701 58.4948 40.5167 57.6712C40.7279 57.5191 41.1969 56.883 41.1969 56.883C41.1969 56.883 42.0929 55.5156 40.3369 55.5156H30.5205C28.5852 55.5155 29.8039 56.9687 29.8039 56.9687Z" fill="#4771B7"/>
<path d="M66.2866 48.4407C66.2866 65.5047 52.4542 79.3368 35.3915 79.3368C18.3274 79.3368 4.49554 65.5047 4.49554 48.4407C4.49554 31.3777 18.3274 17.5444 35.3915 17.5444C52.4542 17.5444 66.2866 31.3777 66.2866 48.4407ZM17.6499 40.9575C23.5726 37.9474 29.4975 34.9372 35.4193 31.926C41.2962 34.9137 47.1728 37.9013 53.0488 40.8879C53.6067 39.9005 54.1636 38.9122 54.72 37.9238L35.4148 28.0237L15.888 37.9238C16.475 38.9346 17.0629 39.9466 17.6499 40.9575ZM19.2754 64.7155V65.8976C19.361 67.5499 21.5776 67.4268 22.3852 67.4343C23.1196 67.4419 25.5268 67.5499 25.6702 65.8976V64.8396C25.6702 64.5054 25.7325 63.6852 24.5416 63.712H20.4574C19.4337 63.7355 19.2754 64.1489 19.2754 64.7155ZM45.0249 64.7155V65.8976C45.1096 67.5499 47.3261 67.4268 48.1333 67.4343C48.8691 67.4419 51.2744 67.5499 51.4197 65.8976V64.8396C51.4197 64.5054 51.4821 63.6852 50.2911 63.712H46.2069C45.1822 63.7355 45.0249 64.1489 45.0249 64.7155ZM17.4118 48.1483C18.9916 48.1718 19.318 46.9286 19.2794 46.2679C19.153 44.0865 15.5369 44.7365 15.1064 46.2679C14.9042 46.9832 16.0029 48.129 17.4118 48.1483ZM55.5972 46.2679C55.1667 44.7365 51.5484 44.0865 51.4233 46.2679C51.3848 46.9286 51.7112 48.1718 53.2919 48.1483C54.7008 48.129 55.7976 46.9832 55.5972 46.2679ZM23.0798 43.2813C21.8444 45.6115 20.6736 48.6002 20.6736 48.6002C20.6736 48.6002 16.5553 50.6594 16.2607 52.4616C15.5132 57.0577 16.8916 60.7393 18.9113 62.2857H51.9511C53.9569 60.7007 55.3726 57.4164 54.5309 52.392C54.2116 50.487 50.1135 48.5487 50.1135 48.5487C50.1135 48.5487 48.958 45.4904 47.7288 43.2716C45.3473 38.9722 35.3036 39.2131 35.3036 39.2131C35.3036 39.2131 25.3353 39.0278 23.0798 43.2813Z" fill="#4771B7"/>
</svg>
